<?xml version="1.0" encoding="UTF-8"?>
<svg xmlns="http://www.w3.org/2000/svg" xmlns:xlink="http://www.w3.org/1999/xlink" viewBox="0 0 50 50" version="1.1" width="50px" height="50px">
<g id="surface1">
<path style=" " fill="rgb(219, 227, 232)" d="M 16.082031 4.015625 C 15.53125 4.054688 14.992188 4.195313 14.5 4.445313 C 13.476563 4.96875 12.828125 5.949219 12.464844 7.082031 C 12.097656 8.214844 11.972656 9.539063 12 11.015625 C 12.03125 12.765625 12.296875 14.742188 12.726563 16.808594 C 11.082031 17.117188 9.574219 17.511719 8.238281 17.984375 C 6.453125 18.613281 4.96875 19.378906 3.863281 20.324219 C 2.757813 21.265625 2.007813 22.449219 1.9375 23.792969 C 1.863281 25.1875 2.644531 26.421875 3.695313 27.453125 C 4.75 28.480469 6.136719 29.347656 7.636719 29.933594 C 7.972656 30.070313 8.351563 30.015625 8.636719 29.789063 C 8.917969 29.566406 9.058594 29.207031 9.003906 28.847656 C 8.945313 28.492188 8.703125 28.195313 8.363281 28.066406 C 7.105469 27.578125 5.910156 26.824219 5.09375 26.023438 C 4.28125 25.222656 3.90625 24.417969 3.9375 23.894531 C 3.972656 23.222656 4.332031 22.550781 5.164063 21.84375 C 5.992188 21.132813 7.273438 20.441406 8.902344 19.871094 C 10.140625 19.433594 11.582031 19.058594 13.175781 18.765625 C 13.636719 20.582031 14.203125 22.4375 14.871094 24.261719 C 11.644531 30.058594 9.933594 35.199219 10 39.015625 C 10.039063 41.363281 10.878906 43.296875 12.453125 44.320313 C 13.527344 45.015625 14.820313 45.277344 16.167969 45.003906 C 17.515625 44.730469 18.925781 43.996094 20.578125 42.8125 C 20.878906 42.609375 21.042969 42.261719 21.011719 41.898438 C 20.980469 41.539063 20.753906 41.222656 20.425781 41.078125 C 20.09375 40.929688 19.710938 40.96875 19.421875 41.1875 C 17.886719 42.277344 16.683594 42.859375 15.769531 43.046875 C 14.855469 43.230469 14.242188 43.097656 13.546875 42.640625 C 12.660156 42.066406 12.03125 40.886719 12 38.984375 C 11.949219 36.09375 13.242188 31.738281 15.828125 26.714844 C 16.164063 27.523438 16.515625 28.316406 16.886719 29.089844 C 19.554688 34.695313 22.914063 39.285156 26.1875 42.28125 C 27.824219 43.777344 29.4375 44.878906 30.992188 45.488281 C 32.546875 46.097656 34.113281 46.222656 35.433594 45.550781 L 35.488281 45.519531 L 35.539063 45.488281 C 36.660156 44.730469 37.355469 43.476563 37.734375 41.972656 C 38.109375 40.472656 38.191406 38.6875 38.015625 36.675781 C 37.667969 32.65625 36.289063 27.730469 33.90625 22.578125 C 33.675781 22.078125 33.082031 21.859375 32.578125 22.09375 C 32.078125 22.324219 31.859375 22.917969 32.09375 23.421875 C 34.390625 28.394531 35.703125 33.148438 36.023438 36.851563 C 36.183594 38.703125 36.09375 40.289063 35.792969 41.484375 C 35.5 42.644531 35.023438 43.378906 34.46875 43.78125 C 33.808594 44.089844 32.917969 44.097656 31.722656 43.625 C 30.503906 43.144531 29.046875 42.183594 27.535156 40.800781 C 24.515625 38.039063 21.261719 33.625 18.6875 28.230469 C 18.113281 27.015625 17.578125 25.730469 17.078125 24.421875 C 17.6875 23.355469 18.332031 22.269531 19.050781 21.160156 C 19.765625 20.0625 20.5 19.011719 21.25 18.015625 C 21.5 18.011719 21.75 18 22.003906 18 C 23.078125 17.996094 24.183594 18.027344 25.308594 18.085938 C 31.296875 18.398438 36.675781 19.546875 40.441406 21.117188 C 42.328125 21.902344 43.804688 22.796875 44.738281 23.679688 C 45.671875 24.5625 46.035156 25.363281 46 26.101563 C 45.960938 26.777344 45.652344 27.433594 44.945313 28.121094 C 44.234375 28.808594 43.125 29.492188 41.640625 30.066406 C 41.292969 30.1875 41.035156 30.484375 40.976563 30.847656 C 40.914063 31.210938 41.054688 31.578125 41.347656 31.804688 C 41.636719 32.027344 42.023438 32.078125 42.359375 31.933594 C 44.023438 31.285156 45.363281 30.503906 46.339844 29.558594 C 47.3125 28.609375 47.929688 27.453125 47.996094 26.203125 C 48.070313 24.722656 47.308594 23.359375 46.109375 22.222656 C 44.914063 21.089844 43.246094 20.117188 41.214844 19.269531 C 37.144531 17.574219 31.589844 16.410156 25.410156 16.089844 C 24.535156 16.042969 23.679688 16.03125 22.824219 16.019531 C 24.472656 14.023438 26.152344 12.285156 27.765625 10.890625 C 30.644531 8.414063 33.351563 7.0625 35.035156 7 L 35.039063 7 C 35.664063 6.976563 36.132813 7.101563 36.523438 7.351563 C 37.789063 8.175781 38.851563 10.382813 37.125 13.515625 C 36.933594 13.832031 36.929688 14.226563 37.117188 14.542969 C 37.300781 14.859375 37.644531 15.050781 38.011719 15.039063 C 38.378906 15.023438 38.710938 14.8125 38.875 14.484375 C 40.984375 10.65625 39.847656 7.125 37.613281 5.675781 L 37.609375 5.675781 C 36.835938 5.171875 35.910156 4.964844 34.964844 5 L 34.960938 5 C 32.402344 5.097656 29.515625 6.746094 26.460938 9.375 C 24.402344 11.152344 22.285156 13.414063 20.25 16.035156 C 18.304688 16.097656 16.449219 16.25 14.71875 16.488281 C 14.292969 14.480469 14.027344 12.585938 14 10.984375 C 13.976563 9.644531 14.105469 8.507813 14.367188 7.695313 C 14.628906 6.886719 14.980469 6.449219 15.40625 6.230469 C 15.65625 6.105469 15.917969 6.03125 16.230469 6.007813 C 17.253906 5.929688 19.261719 7.027344 21.359375 8.769531 C 21.636719 9.003906 22.015625 9.070313 22.351563 8.945313 C 22.691406 8.824219 22.9375 8.527344 22.996094 8.171875 C 23.054688 7.816406 22.917969 7.457031 22.640625 7.230469 C 20.429688 5.398438 18.308594 3.847656 16.082031 4.015625 Z M 18.707031 18.109375 C 18.257813 18.75 17.8125 19.398438 17.375 20.074219 C 16.960938 20.710938 16.585938 21.339844 16.203125 21.96875 C 15.8125 20.785156 15.476563 19.613281 15.175781 18.453125 C 16.300781 18.300781 17.480469 18.1875 18.707031 18.109375 Z M 25 22 C 23.34375 22 22 23.34375 22 25 C 22 26.65625 23.34375 28 25 28 C 26.65625 28 28 26.65625 28 25 C 28 23.34375 26.65625 22 25 22 Z "/>
</g>
</svg>
